<?xml version="1.0" encoding="utf-8"?>
<!-- Generator: Adobe Illustrator 16.0.3, SVG Export Plug-In . SVG Version: 6.00 Build 0)  -->
<!DOCTYPE svg PUBLIC "-//W3C//DTD SVG 1.1//EN" "http://www.w3.org/Graphics/SVG/1.1/DTD/svg11.dtd">
<svg version="1.1" id="Capa_5_copia" xmlns="http://www.w3.org/2000/svg" xmlns:xlink="http://www.w3.org/1999/xlink" x="0px"
	 y="0px" width="289.134px" height="289.133px" viewBox="0 0 289.134 289.133" enable-background="new 0 0 289.134 289.133"
	 xml:space="preserve">
<polygon fill="#3C3C3B" points="273.761,144.079 273.761,232.298 269.112,232.298 269.112,234.878 264.421,234.878 264.421,237.41 
	258.032,237.41 258.032,240.628 252.501,240.628 252.501,243.799 246.101,243.799 246.101,246.349 240.122,246.349 240.122,248.909 
	235.011,248.909 235.011,252.779 228.622,252.779 228.622,255.309 221.811,255.309 221.811,257.889 217.112,257.889 
	217.112,261.708 210.711,261.708 210.711,264.259 205.192,264.259 205.192,268.099 197.921,268.099 197.921,270.679 
	192.811,270.679 192.811,273.208 186.442,273.208 186.442,276.309 179.582,276.309 179.582,279.609 172.381,279.609 
	172.381,282.159 167.271,282.159 167.271,284.719 159.572,284.719 159.572,286.009 155.721,286.009 155.721,287.299 
	148.612,287.299 148.612,284.069 145.341,284.069 145.341,282.159 140.341,282.159 140.341,279.609 134.562,279.609 
	134.562,277.049 130.211,277.049 130.211,274.499 124.841,274.499 124.841,271.939 119.961,271.939 119.961,269.389 
	116.651,269.389 116.651,266.809 111.551,266.809 111.551,264.259 108.971,264.259 108.971,261.708 103.861,261.708 
	103.861,259.149 101.281,259.149 101.281,256.069 96.171,256.069 96.171,254.039 91.841,254.039 91.841,251.489 85.961,251.489 
	85.961,248.909 80.852,248.909 80.852,246.349 77.011,246.349 77.011,240.509 80.852,240.509 80.852,237.989 85.961,237.989 
	85.961,236.069 91.062,236.069 91.062,232.878 94.352,232.878 94.352,235.41 99.461,235.41 99.461,238.628 105.861,238.628 
	105.861,241.799 114.082,241.799 114.082,244.349 134.961,244.349 134.961,238.628 143.481,238.628 143.481,230.439 
	140.952,230.439 140.952,222.809 137.582,222.809 137.582,219.5 133.271,219.5 133.271,215.679 128.171,215.679 128.171,210.359 
	135.821,210.359 135.821,208.58 143.131,208.58 143.131,206 151.602,206 151.602,203.449 156.282,203.449 156.282,200.439 
	158.832,200.439 158.832,189.109 163.981,189.109 163.981,185.539 167.801,185.539 167.801,182.989 172.912,182.989 
	172.912,180.439 177.631,180.439 177.631,177.878 184.001,177.878 184.001,175.33 189.542,175.33 189.542,173.389 194.271,173.389 
	194.271,171.479 199.381,171.458 199.381,169.069 204.902,169.069 204.902,166.989 210.001,166.989 210.001,164.449 
	215.981,164.449 215.981,162.439 221.091,162.439 221.091,159.939 227.501,159.939 227.501,157.569 233.881,157.569 
	233.881,154.689 238.992,154.689 238.992,151.649 245.811,151.649 245.811,149.089 250.082,149.089 250.082,146.539 
	256.891,146.539 256.891,144.079 "/>
<g>
	<path fill="#232127" d="M60.341,91.669l0.085-6.188l-1.298-0.958L58.67,82.53h-1.833l0.375-16.424l17.5-0.458V59.07h2.625
		l-0.458-3.881l1.833-0.25v-2.167l2.167-0.875h1.5v-2.375l2.5,0.333l0.458-4.125l5.708,0.569l0.792-2.36l5.711-0.917v-1.333
		l18.664,0.625l0.5-2.625l6.361-0.25l0.389-2.375l2.188-0.042l1.146-0.583v-1.563h4.042l0.875,2.75l4.5,0.688l0.625,1.875
		l6.25,0.375l1.484-1.438l-0.672-2.417l-1.058-1.395v-1.5c0,0-1.505-0.305-1.692-0.305s-1.875-1.76-1.875-1.76h-0.625l-0.799-6.498
		l2.463-0.693l-0.002-20.899h-2.41l0.311,2.217l-1.875,1.313h-2.75l0.063,1.813l-2.521,0.25l-1.542-1.875l-4.25-0.998l-9,0.81
		l0.063,1.5l-29.5,0.75l-0.377,2.37l-8.435,0.255l-0.935,1.935h-6.63l-0.185,2.065l-4.25,0.5l-0.063,2.188l-5,0.375l-0.75,1.563
		l-1.438,0.375l-0.063,1.875l-1.603,0.188l-0.454,2.313l-1.676-0.47v2.408l-0.518,0.813l-1.125,0.29l-0.487,2.96l-1.075,1.23h-0.75
		v38.52l0.718,7.523l0.782,0.789l-0.125,4.295h2.125l0.813,1.267l-0.357,2.455l2.357,0.42l-0.228,3.73l3.255,0.233"/>
</g>
<path fill="#FDD8A4" d="M141.508,51.652v-8.56h-2.521v-2.11h-3.2v-3.2h-2.78v-3.21h-6.34v2.47h-4.16v2.42h-6.5v2.58h-18.46v1.5
	h-6.04v2.78h-6.17v3.55h-3.08v2.25h-3.88v2.71h-1.62v4.26h-2.17v6.74h-17.87v17.633c0.953-0.246,1.992,0.124,2.2,1.375
	c0.001,0.008,0.001,0.013,0.002,0.021c0.29,0.215,0.569,0.433,0.827,0.694c0.519,0.524,0.763,1.269,0.879,1.976
	c0.34,2.088,0.172,4.239,0.425,6.341c0.085,0.82-0.267,1.355-0.783,1.646v0.444h1.333c-1.113,2.597-1.062,6.279,0.075,8.737
	c0.621,1.344,1.801,2.085,3.25,2.265c0.645,0.08,1.256,0.009,1.901-0.029c0.006,0.02,0.008,0.027,0.015,0.049
	c0.144,0.487,0.468,0.823,0.778,1.208c0.528,0.654,1.732,0.77,2.41,0.311c0.215-0.146,0.395-0.312,0.551-0.49h1.376v2.7h1.55v2.3
	h2.25v0.34h3.08v3.18h2.71v3.18h3.27c-0.01,0.33-0.03,0.72-0.06,1.07l-0.08,1.08h2.91v2.15h2.52v2.11h3.19v2.67h4.96v2.66h2.47v3.59
	h5.69v2.8h4.87v-3.2h2.63v-5.31h2.5v-2.7h2.49l0.04-3.7h1.91v-1.8h2.13v-2.47h5.33v-2.13h4.77v-4.26h2.25v-2.56h3.25v-6.91h-0.601
	c-0.21-0.2-0.399-0.42-0.56-0.65c0.08,0.52,0.18,1.05,0.289,1.57v1.08h0.23c0.11,0.57,0.2,1.1,0.221,1.58
	c0.119,2.08-1.701,3.1-3.391,2.86c-0.1,0.16-0.22,0.33-0.39,0.57c-0.16,0.23-0.31,0.45-0.47,0.66v-1.93h3.17v-11.58h0.979v-14.54
	h0.601v-2h-0.601v-2.12h1.69v-3.84h2v-2.57h2.689v-18.24h1v-2H141.508z"/>
<g>
	<path fill="#232127" d="M64.128,65.924h11.083l2.833,1.348v2l3.627,0.466v1.076l4.456,0.374l0.5,1.736h6.833h2.085l0-1.736
		l2.999-0.374l1.257-2.15c0,0,2.493,0,2.826,0s0.917-1.476,0.917-1.476h4.917l0.5-2.083h4.083l1.167-1.833l3.25,0.417l1.167-1.409
		h1.917l1.417-1.924h2.37l0.547-1.286h1.917l1.167-2.13h2.417l0.75-2.125h1.917l0.917-1.709h2.878l0.872-1.471l6.1,0.394l0.76,2.661
		v17.18l-2.025,0.403l-0.664,1.75l-2.17,1.333l0.6,1.917l-1.684,1.167l-0.082,1.417l-3.334,0.544h-9.417l-0.466-2.127l-2.701-0.25
		l-0.417-2.333l-3.167-0.167l-0.5,5.952h-1.667l-0.75,3.214l-2.457,1.046l-0.376,1.538l-2.417,0.572l-0.75,3.225l-2.853,0.429
		l-1.563,1.607l-2.833,0.5l-1.167,1.833l-2.333,0.966l-5.417-0.47l0.38-2.413L91.628,93.2l0-2.594l-0.917-1.583l-1.25-1.083
		l-0.083-3.25l-1.667-0.892l-0.705-2.322h-3.712l-0.548-2.496h-4.25l-0.869-1.707l-3.917,0.25l0.25-2.583l-5.941-0.5l-1.393-3
		l-3.061,0.083L64.128,65.924z"/>
</g>
<g>
	<polygon fill="#C6A47F" points="125.329,112.772 125.329,108.939 123.073,108.939 123.073,107.689 119.899,107.689 
		119.899,110.231 117.045,110.231 117.045,112.772 116.086,112.772 116.086,117.939 113.836,117.939 110.899,117.939 
		110.899,116.022 108.086,116.022 108.086,113.314 106.711,111.939 106.711,109.439 106.711,105.362 106.711,102.783 
		111.537,102.783 111.537,99.939 114.586,99.939 114.586,97.814 117.045,97.814 117.045,95.314 110.461,95.314 110.461,98.439 
		106.086,98.439 106.086,100.689 100.961,100.689 99.779,101.871 97.086,101.871 97.086,104.777 94.642,104.777 94.642,107.689 
		90.836,107.689 90.836,102.783 87.461,102.783 87.461,98.064 82.834,98.064 82.834,94.564 76.461,94.564 76.461,89.814 
		72.836,89.814 72.836,86.814 67.545,86.814 67.545,88.723 69.711,88.723 69.711,92.149 71.211,92.149 73.212,94.15 73.212,96.939 
		76.731,96.939 76.731,99.522 78.501,99.522 80.211,99.522 80.211,103.564 81.985,105.338 84.336,105.338 84.336,107.564 
		86.711,107.564 86.711,110.473 89.17,110.473 89.17,113.314 89.628,114.106 91.545,114.314 91.628,115.939 94.341,118.759 
		99.801,118.141 99.801,120.681 116.336,120.681 118.445,118.573 120.586,118.573 120.586,115.189 124.836,115.189 	"/>
</g>
<g>
	<polygon fill="#C6A47F" points="119.295,121.681 99.211,121.681 99.211,119.759 93.341,119.759 93.341,115.689 90.545,115.689 
		90.545,113.379 88.17,113.379 88.17,111.473 85.711,111.473 85.711,108.564 83.67,108.564 83.67,106.362 79.577,106.362 
		79.577,100.522 75.731,100.522 75.731,97.383 71.923,97.383 71.923,93.149 68.628,93.149 68.628,89.723 66.545,89.723 
		66.545,85.314 64.233,85.314 64.233,71.189 66.233,71.189 66.233,83.314 68.545,83.314 68.545,87.723 70.628,87.723 70.628,91.149 
		73.923,91.149 73.923,95.383 77.731,95.383 77.731,98.522 81.577,98.522 81.577,104.362 85.67,104.362 85.67,106.564 
		87.711,106.564 87.711,109.473 90.17,109.473 90.17,111.379 92.545,111.379 92.545,113.689 95.341,113.689 95.341,117.759 
		101.211,117.759 101.211,119.681 117.295,119.681 117.295,117.15 118.899,117.15 118.899,114.189 124.329,114.189 124.329,111.772 
		129.923,111.772 129.923,107.855 131.045,107.855 131.045,105.522 132.378,105.522 132.378,99.022 129.878,99.022 129.878,97.405 
		119.461,97.405 119.461,93.939 132.378,93.939 132.378,95.405 136.211,95.405 136.211,107.522 133.045,107.522 133.045,109.855 
		131.923,109.855 131.923,113.772 126.329,113.772 126.329,116.189 120.899,116.189 120.899,119.15 119.295,119.15 	"/>
</g>
<g>
	<path fill="#45715E" d="M192.759,174.331c-0.844-0.045-1.75-0.571-1.929-1.469c-0.447-2.253-1.363-3.282-2.387-5.137
		c-0.504-0.913-0.874-1.81-1.138-2.815c-0.281-1.073-0.605-1.267,0.266-0.979c-1.396-0.462-2.184-1.531-2.323-2.996
		c-0.078-0.824-0.152-1.641-0.091-2.47c0.021-0.288,0.087-0.466,0.162-0.596c-0.008,0-0.011,0.002-0.019,0.002
		c-1.132,0.002-1.944-0.913-2-2c-0.067-1.31-0.099-2.407,0.113-3.697c0.022-0.138,0.06-0.261,0.102-0.377
		c-1.289-0.87-2.611-1.586-3.845-2.658c-0.66-0.57-0.52-1.66-1.18-2.2c-0.69-0.561-2.181-0.58-2.75-1.311
		c-0.74-0.969-1.7-1.919-2.59-2.719c-0.381-0.14-0.15-0.93-0.48-1.27c-0.22-0.22-0.44-0.44-0.66-0.66
		c-0.49-0.48-0.729-1.05-0.81-1.62c-0.38-0.36-0.811-0.72-1-1.16c-0.44-1.01-0.86-2-1.25-3.03c-0.61-1.61-0.891-2.68-2.23-3.62
		c-0.6-0.41-1.33-0.81-1.67-1.49c-1.27-2.53-0.64-3.83-3.27-5.28c-1.141-0.62-1.9-1.76-2.561-2.99c-0.649-0.23-1.229-0.67-1.6-1.29
		c-0.16-0.28-0.26-0.58-0.32-0.87c-0.53-0.35-0.93-0.89-1.07-1.64c-0.06-0.36-0.109-0.71-0.149-1.06c-0.04-0.19-0.09-0.37-0.13-0.55
		c-0.4-0.14-0.78-0.36-1.11-0.69c-0.71-0.71-1-1.78-0.82-2.76c-2.53-2.4-5.96-3.36-8.68-5.53c-0.2-0.16-1.149,0.08-1.33-0.09
		c-0.63-0.6-0.85-1.51-1.149-2.29c-0.101-0.27-0.101-2.07-0.15-2.24c-1.391-0.12-2.57,0.91-3.87,0.24
		c-0.95-0.48-1.76-1.14-2.29-1.89c0.221,1.48,0.68,3.03,0.74,4.23c0.12,2.08-1.7,3.1-3.39,2.86c-0.1,0.16-0.22,0.33-0.39,0.57
		c-0.4,0.57-0.75,1.13-1.37,1.49c-0.11,0.07-0.34,0.14-0.6,0.22c-0.03,0.22-0.05,0.45-0.08,0.69c-0.21,1.68-1.21,2.92-3,3
		c-0.9,0.04-1.63,1.27-2.79,1.83c-1.71,0.83-3.82,1.18-4.39,1.91c-1.86,2.36-5.23,4.21-5.86,7.34c-0.31,1.53-1.68,1.56-2.88,2.34
		c-0.46,0.3,0.13,1.53-0.48,1.64c-0.06,0.54-0.13,1.08-0.2,1.63c-0.26,0.91-1.01,1.58-1.61,2.26c-0.85,0.97-2.1,3.09-3.17,2.68
		c-0.39-0.15-0.74-2.41-1.07-2.68c-0.45-0.35-0.96-0.53-1.5-0.65c-0.33,0.03-0.67,0.01-1.01-0.07l-0.67-0.17
		c-1.69-0.42-2.31-1.69-2.15-2.93c-0.02-0.01-0.04-0.03-0.07-0.04c-1.07-0.62-1.7-1.77-2.83-2.33c-0.75-0.38-2.87-0.28-3.66-0.85
		c-0.84-0.6-0.34-1.88-1.17-2.39c-0.79-0.3-1.49-0.63-2.34-1.1c-0.9-0.5-2.29-0.38-2.37-1.23c-0.42-0.23,0.09-1.35-0.41-1.46
		c-1.55-0.34-4.11-1.67-5.28-2.76c-0.78-0.74-1.9-2.09-2.84-3.59c-0.67-1.08-1.12-2.46-1.88-2.65c-0.161-0.04-0.292-0.11-0.433-0.17
		c-0.351,0.412-0.856,0.694-1.472,0.685c-1.297-0.02-2.463-0.285-3.634-0.835c-0.535-0.251-1.13-2.087-1.282-2.104
		c-1.309-0.148-2.337-0.471-3.215-1.491c-0.753-0.876-0.44-0.85-1.741-0.886c-1.805-0.051-4.448-0.354-4.979-2.518
		c-0.78-3.178,0.196-6.634,0.289-9.852c0.006-0.21,0.046-0.398,0.1-0.574c-0.641-0.339-0.773-0.529-0.902-0.894
		c-0.06-0.16-0.12-0.35-0.22-0.61c-0.86-0.02-2.35-0.08-3.21-0.17l0.04,0.65h1.98l-1.58,1.41l-0.3,0.27l-0.76,1.26h-1.51v0.99
		l-0.6,0.3l-0.48,1.29h-1.46v1.14l-0.31,0.15l-0.17,0.9h-2.69v2.15l-0.27,0.77h-2.06v1l-0.69,1h-1.81v1.21l-0.31,2.32l-0.9,0.87
		h-1.03v1.73l-0.38,0.82l-0.65,0.38h-2.06v2.17l-1.33,0.99h-0.69v2.36l-2.27,0.52h-1.05v1.6l-0.5,1.77h-1.58v1.24l-1,2.74
		l-0.24,0.29h-1.68v47.98h2.67v14.92h0.51v0.4h2.57v3.869h2.55l0.75,0.74v3.74h0.52v0.63h1.28v8.45l1.91,1.91v8.8h3.2v8.96h4.96
		l0.1,0.1v-0.1h0.1v-4.5h10.21v-1.6l0.15-0.15h7.54v3.13h6.35v3.12h2.97l0.89,0.891v1.639h4.81v2.58h4.13v2.58h5.1v0.701
		c0.43,0.029,0.86,0.08,1.29,0.149c0.14,0.021,0.27,0.04,0.41,0.069c0.41,0.07-0.18,0.66,0.11,0.861c0.39,0.27,1.02,0.469,1.47,0.75
		c0.28,0.18,0.49,0.399,0.52,0.689c0.99-0.09,1.95,0.311,2.6,1.14c0.23,0.28,0.42,0.61,0.56,0.99c0.07,0.17,0.2,0.31,0.39,0.399
		c0.58,0.32,1.64,0.33,2.61,0.19c0.36-0.04,0.7-0.11,1-0.19c0.42-0.109,0.75-0.239,0.93-0.359c0.35-0.25,0.65-0.53,0.91-0.84
		c0.31-0.36,0.56-0.75,0.79-1.16c0.34-0.609,0.61-1.26,0.89-1.91c0.23-0.529,0.46-1.05,0.73-1.55c0.21-0.39,0.42-0.79,0.66-1.22
		c0.29-0.51,0.63-1.07,1.11-1.721c0.15-0.189,0.31-0.4,0.48-0.619c0.28-0.351,0.59-0.681,0.9-0.98c0.48-0.46,1-0.88,1.54-1.28
		c0.47-0.35,0.95-0.7,1.45-1.05c0.55-0.4,1.11-0.8,1.66-1.25c0.04-0.029,0.09-0.061,0.13-0.1c0.53-0.44,0.99-0.92,1.45-1.4
		c0.45-0.471,0.89-0.939,1.39-1.359c0.22-0.181,0.46-0.361,0.71-0.521c0.4-0.25,0.82-0.49,1.26-0.7c0.58-0.3,1.18-0.57,1.78-0.85
		c0.97-0.45,1.93-0.91,2.78-1.49c0.13-0.07,0.25-0.16,0.37-0.25c0.49-0.359,0.82-0.84,1.1-1.34c0.31-0.561,0.56-1.17,0.9-1.711
		c0.17-0.26,0.35-0.51,0.57-0.729c0.02-0.03,0.06-0.05,0.09-0.079c-0.46-0.23-0.87-0.57-1.15-0.98c-0.34-0.461-0.53-1.03-0.49-1.66
		c-0.06,0.93-0.88,0.16-2.01-0.41c-0.74-0.359-1.88-0.311-2.32-0.98c-0.53-0.81-1.68-1.42-2.48-1.89c-0.41-0.25-1.12-0.51-1.4-0.88
		c-0.21-0.3-0.01-0.689-0.21-0.99c-0.88-1.279-0.79-3.41,0.23-4.34c0.34-0.3,1.13,0.09,1.56-0.07c3.06-1.09,6.14-0.43,9.27-0.149
		c0.05-0.41,0.16-0.83,0.3-1.25c0.45-1.399,1.5-2.03,2.89-2.2c1.68-0.21,3.49-0.01,5.16,0.08c2.1,0.12,1.109,0.91,1.64,0.08
		c0.33-0.51,0.75-0.939,1.25-1.28c0.149-0.13,0.19-0.829,0.46-0.96c0.744-0.342,1.897-0.547,2.943-0.599
		c-0.552-2.788-0.527-5.681-0.276-8.53c-0.424-0.133-0.834-0.368-1.206-0.739c-1.267-1.268-1.133-3.934-0.774-6.449
		c-0.335-0.255-0.59-0.617-0.741-1.059c-1.273-3.733-0.664-8.372-0.696-12.281c-0.021-2.58,3.979-2.578,4,0
		c0.006,0.793-0.021,1.642-0.051,2.507c0.29-0.192,0.644-0.319,1.083-0.319c1.231,0,1.867,0.911,1.924,1.864
		c0.249,0.299,0.405,0.67,0.455,1.061c0.178,0.173,0.329,0.367,0.428,0.593c0.115-0.019,0.222-0.049,0.35-0.049
		c1.29,0,1.935,1,1.935,2c0.282,0.469,0.372,1.058,0.257,1.6c0.043,0.06,0.094,0.113,0.13,0.178c0.892-0.259,1.894-0.08,2.737,0.82
		c3.049,3.253,4.564,7.821,4.504,12.246c-0.001,0.061-0.016,0.112-0.02,0.171c0.403,0.045,0.794,0.094,1.14,0.127
		c0.47,0.049,0.94,0.1,1.41,0.149c0.91,0.101,1.82,0.181,2.72,0.11c0.99-0.07,1.141-0.221,1.38-0.57c0.15-0.21,0.33-0.49,0.74-0.87
		c0.15-0.149,0.24-0.38,0.31-0.64c0.16-0.65,0.171-1.49,0.69-1.801c0.45-0.27,1.9,0.521,2.36,0.25c-0.011-0.17,0-0.34,0.029-0.51
		c0.07-0.629,0.33-1.24,0.74-1.72c0.33-0.38,0.76-0.67,1.28-0.83c0.27-0.09,0.56-0.13,0.88-0.13c0.82-0.01,1.62,0.061,2.43,0.13
		c0.04,0,0.08,0.011,0.12,0.011c0.141,0.01,0.25,0.02,0.37,0.029v-0.04c0.01-0.079,0.021-0.159,0.03-0.239
		c0.13-1.011,0.729-1.9,1.689-2.311c0.351-0.15,0.74-0.24,1.19-0.25c0.49-0.01,1.12-0.58,1.84-1.09c0.32-0.221,0.65-0.43,1-0.58
		c0.83-0.34,1.94-0.02,2.22-0.09c0.96-0.211,1.9-0.25,2.87-0.12c0.25,0,0.44,0,0.61,0.01c0.27-0.63,0.14-1.989,0.6-2.46
		c0.42-0.43,1.42,0.02,2.061-0.189c0.38-0.121,0.76-0.24,1.14-0.34c0.46-0.121,0.93-0.201,1.41-0.211h0.24
		c0.09-0.01,0.17-0.01,0.25-0.02c0.5-0.91,1.43-1.5,2.6-1.58c0.271-0.02,0.51-0.061,0.73-0.13c0.239-0.063,0.452-0.161,0.655-0.267
		C194.238,174.292,193.466,174.369,192.759,174.331z"/>
</g>
<g>
	<polygon fill="#232127" points="71.211,143.355 80.577,143.702 81.128,147.535 93.352,147.535 93.352,150.089 108.708,150.089 
		108.708,147.541 111.275,147.541 111.275,143.342 117.045,143.342 117.045,141.159 118.628,141.159 118.628,137.29 121.472,137.29 
		121.472,134.747 126.618,134.747 126.618,132.192 128.899,132.192 128.899,129.637 131.716,129.637 131.716,127.605 
		134.272,127.605 134.272,129.637 136.821,129.637 136.821,146.751 136.821,149.751 133.711,149.751 133.711,152.189 
		130.439,152.645 129.899,157.251 126.618,158.126 126.582,162.89 122.024,162.878 121.024,167.989 116.024,168.939 
		116.086,172.482 107.442,172.482 107.431,170.064 97.672,169.279 96.774,167.001 89.211,166.711 88.248,166.314 87.836,164.439 
		80.336,165.13 79.211,160.814 77.086,158.189 77.586,154.689 75.769,153.596 75.899,148.939 74.164,147.773 72.211,147.541 	"/>
</g>
<g>
	<polygon fill="#25493D" points="134.284,128.772 134.961,116.022 137.795,116.022 137.795,121.189 140.66,121.189 140.66,136.423 
		142.461,136.423 142.461,141.772 145.295,141.772 145.295,148.273 147.545,148.273 147.545,150.439 149.627,150.439 
		149.627,152.189 153.448,152.189 153.448,159.07 161.139,159.07 161.139,164.606 167.711,164.606 169.128,164.606 169.128,162.606 
		172.211,162.606 172.211,160.023 176.961,160.023 176.961,163.011 173.915,163.011 173.915,166.711 166.271,166.711 
		166.271,171.81 168.181,173.719 169.162,174.7 169.162,175.939 170.813,177.59 171.743,178.52 173.122,179.899 173.915,179.899 
		173.499,183.439 169.211,183.992 168.388,185.606 165.833,186.541 164.211,189.09 158.571,190.38 156.878,188.439 156.878,185.606 
		155.128,183.439 155.045,179.523 152.183,178.881 152.17,177.591 148.961,177.591 149.045,174.273 146.295,173.099 145.77,170.064 
		143.19,169.279 143.211,166.189 140.961,165.446 140.66,161.601 139.395,160.33 138.878,153.201 137.378,153.201 136.461,147.189 
		136.839,130.106 	"/>
</g>
<g>
	<path fill="#25493D" d="M176.078,180.523h-5.696v-3.197h-2.578v-3.844h-2.532v-7.293h7.644v-2.984h-3.113v2.401h-9.663v-4.75
		h-8.093v-7.211h-3.418v-2.556h-2.082v-2.549h-2.25v-5.768h-2.834v-5.349h-2.084v-15.234h-2.582v-5.167h-1.523v10.059h-2v-12.059
		h5.523v5.167h2.582v15.234h2.084v5.349h2.834v5.768h2.25v2.549h2.082v2.556h4.4v-2.956h14.017v3.69h-11.165v3.06h-3.835v3.417
		h8.094v4.75h5.663v-2.401h3.41v-2.182h6.75v5.666h-3.047v3.5h-7.644v3.293h2.532v3.844h2.578v3.197h3.696V180.523z
		 M173.211,162.689h2.75v-1.666h-2.75V162.689z"/>
</g>
<g>
	<polygon points="158.278,190.38 156.278,190.38 156.278,184.992 153.738,184.992 153.738,180.689 151.17,180.689 151.17,178.591 
		147.961,178.591 147.961,174.099 144.77,174.099 144.77,170.279 142.19,170.279 142.19,166.446 139.66,166.446 139.66,162.189 
		138.37,162.189 138.37,153.645 135.821,153.645 135.821,130.637 133.272,130.637 133.272,128.082 132.728,128.082 132.728,130.637 
		129.899,130.637 129.899,133.192 126.836,133.192 126.836,135.741 122.472,135.741 122.472,138.29 119.628,138.29 119.628,142.159 
		117.361,142.159 117.361,144.342 112.275,144.342 112.275,148.064 109.708,148.064 109.708,151.089 92.352,151.089 92.352,148.535 
		79.577,148.535 79.577,144.702 72.211,144.702 72.211,142.702 81.577,142.702 81.577,146.535 94.352,146.535 94.352,149.089 
		107.708,149.089 107.708,146.064 110.275,146.064 110.275,142.342 115.361,142.342 115.361,140.159 117.628,140.159 
		117.628,136.29 120.472,136.29 120.472,133.741 124.836,133.741 124.836,131.192 127.899,131.192 127.899,128.637 130.728,128.637 
		130.728,126.082 135.272,126.082 135.272,128.637 137.821,128.637 137.821,151.645 140.37,151.645 140.37,160.189 141.66,160.189 
		141.66,164.446 144.19,164.446 144.19,168.279 146.77,168.279 146.77,172.099 149.961,172.099 149.961,176.591 153.17,176.591 
		153.17,178.689 155.738,178.689 155.738,182.992 158.278,182.992 	"/>
</g>
<g>
	<polygon points="117.385,173.482 106.442,173.482 106.442,170.279 96.221,170.279 96.221,167.711 87.266,167.711 87.266,165.18 
		79.836,165.18 79.836,163.18 89.266,163.18 89.266,165.711 98.221,165.711 98.221,168.279 108.442,168.279 108.442,171.482 
		115.385,171.482 115.385,167 120.49,167 120.49,161.89 125.582,161.89 125.582,156.78 129.439,156.78 129.439,151.645 
		132.017,151.645 132.017,149.089 136.821,149.089 136.821,151.089 134.017,151.089 134.017,153.645 131.439,153.645 
		131.439,158.78 127.582,158.78 127.582,163.89 122.49,163.89 122.49,169 117.385,169 	"/>
</g>
<g>
	<polygon fill="#25493D" points="115.071,201.89 115.071,197.626 112.552,197.626 112.552,195.49 110.009,195.49 110.009,192.959 
		107.086,192.959 107.086,190.939 104.863,190.939 104.863,187.8 102.284,187.8 102.284,185.281 99.149,185.281 99.149,182.703 
		94.642,182.703 94.642,177.591 92.063,177.591 92.063,175.06 88.266,175.06 88.266,171.81 87,171.81 87,169.279 85.024,169.279 
		85.024,164.439 81.842,164.439 82.274,170.064 84.336,170.814 84.774,173.771 86.149,174.439 86.336,177.064 88.266,178.189 
		89.649,178.376 89.531,183.165 91.711,182.814 92.111,186.541 96.961,186.541 96.899,190.689 100.024,191.669 99.752,194.689 
		104.586,194.939 105.149,196.78 108.72,197.314 109.149,199.876 111.275,199.939 112.336,200.564 112.541,202.439 	"/>
</g>
<g>
	<path fill="#25493D" d="M93.352,221.229l-1.2,0.46l-0.44,0.17l-1.33,0.16l-0.85,0.33l-0.49,2.55l-3.37-0.21l-0.59-2.43l-0.2-0.82
		l-1.77-0.359l-1.26-0.25l-0.47-0.101l0.03-1.42l0.01-0.24l-2,0.24l-1.41,0.17l-0.22-2.62l-6.41-0.29l-0.3-0.88l-0.34-1.01
		l-0.11-0.32l-1.58-0.311l-0.55-0.109l0.25-2.58l0.3-0.1l1.21-0.391l1.37-0.439l0.21-0.07l-0.21-0.97l-0.17-0.78l0.17-0.029
		l3.82-0.561l0.13-0.21l0.76-1.2l-0.17-2.67h-3.75l-0.21,0.74l-0.29,1.029l-2.13,0.601c0,0-0.06,0.101-0.15,0.26
		c-0.21,0.39-0.59,1.11-0.59,1.29c0,0.16-0.53,0.63-0.92,0.95c-0.21,0.17-0.37,0.3-0.37,0.3l-0.42-0.3l-1.32-0.95l0.45-4.68
		l1.55-0.65l-0.26-3.59l0.58-0.189l2.11-0.681l0.89-0.29l0.29-0.09v-2.58l2-2.15l0.21-1.459l0.16-1.121l-0.16-0.039l-1.88-0.53
		l-0.71-0.2l-0.21,0.2l-1.02,0.989l-0.23,0.221l0.23,1.55l-2.23,0.39l-1.54,0.271l-11.5-0.271l-0.35-2.58l-0.71-0.25l-0.98-0.34
		l-0.27-0.1L51.711,186c0,0-1.04-0.69-1.04-0.721c0.04,0,0.04-3.67,0.04-3.67l-0.17-0.02l-3.7-0.461l0.47-2.25l-0.47-0.069
		l-3.33-0.5l-0.05-12.88l-0.83-1.26l-1.23-1.871l-0.47-0.709v-35.021l0.47-0.1l3.38-0.68l0.43-2.52l3.75-0.01v-1.95l-4.75-0.63
		l0.54-2.53h3.38v-3.87l2.65-0.37l0.37-2.17l0.12-0.71l2.28-0.56l0.17-1.55l0.33-3.01c0,0,5.462-0.149,8.346-0.284
		c-0.566-0.333-0.937-0.898-0.971-1.67c-0.089-2.04-0.445-3.99-0.278-6.042c0.13-1.591,0.328-3.172,0.538-4.753l-1.294-1.011h-1.24
		l-1.58,1.41l-0.3,0.27l-0.76,1.26l-0.21,0.35l-1.3,0.64l-0.6,0.3l-0.48,1.29l-0.2,0.52l-1.26,0.62l-0.31,0.15l-0.17,0.9l-0.08,0.39
		h-1.99l-0.62,1.76l-0.27,0.77l-1.69,0.47l-0.37,0.53l-0.69,1l-1.81,1.21l-0.31,2.32l-0.9,0.87l-0.41,0.39l-0.62,1.34l-0.38,0.82
		l-0.65,0.38l-1.52,0.88l-0.54,1.29l-1.33,0.99l-0.4,0.3l-0.29,2.06l-2.27,0.52l-1.05,1.6l-0.5,1.77l-1.29,0.45l-0.29,0.79l-1,2.74
		l-0.24,0.29l-1.05,1.29v46.69h2.04v14.92h3.08v4.27h2.55l0.75,0.74l0.52,0.52v3.851h1.28v8.45l1.91,1.91v8.8h3.2v8.54h4.54
		l0.52,0.52v-5.209h9.32l1.14-1.141h7.75v2.41h6.14v3.84h2.97l0.89,0.891l0.43,0.43v1.209h4.38v2.58h4.13v2.58h5.15v-8.359
		l1.65-1.65l0.58-2.6L93.352,221.229z"/>
	<path fill="#25493D" d="M78.961,112.699l-1.47-1.243c-0.286,0.205-0.637,0.347-1.065,0.374c-0.616,0.04-1.218-0.018-1.833-0.042
		c-0.463-0.018-0.858-0.174-1.176-0.413c-0.726-0.194-1.375-0.503-2.007-0.896c-0.659-0.409-1.131-0.882-1.412-1.618
		c-0.068-0.142-0.107-0.291-0.136-0.443c-0.885-0.095-1.7-0.406-2.308-1.143c-0.053-0.065-0.113-0.111-0.168-0.169l0.196,1.252
		l1.96,0.21l0.3,0.03l0.24,1.65l0.45,0.22l1.1,0.53l0.17,1.6l1.57,0.39l2.34,0.58l1.28-0.22l1.97-0.31l0.35-0.05L78.961,112.699z"/>
</g>
<g>
	<path d="M116.052,123.609h-2.511v2.7h-2.5v5.31h-2.63v3.2h-0.87v-2.8h-5.69v-3.59h-2.47v-2.66h-4.96v-2.67h-3.19v-2.11h-2.52v-2.15
		h-2.768c0.057-1.423-0.092-1.583-0.313-1.822l-0.313-0.328h-2.646v-3.18h-2.71v-3.18h-0.978c-0.207,0.545-0.625,0.99-1.276,1.096
		c-0.858,0.14-1.833,0.254-2.827,0.275v0.629h3.08v3.18h2.71v3.18h3.272c-0.012,0.335-0.034,0.729-0.06,1.076l-0.08,1.074h2.907
		v2.15h2.52v2.11h3.19v2.67h4.96v2.66h2.47v3.59h5.69v2.8h4.87v-3.2h2.63v-5.31h2.5v-2.7h2.489l0.051-4.689l-2-0.021
		L116.052,123.609z"/>
	<path d="M136.901,2.659v3.53h-3.689v2.38h-2.06v-3.19h-15.29v3.06h-30.34v2.37h-9.37v2.19h-6.63v2.45h-4v2.13h-5.08v1.8h-2.12v2.12
		h-2.15v2.47h-2.13v3.51h-2.13v4.19h-2.13v48.19h2.13v4.73h2.13v3.93h2.13v4.63h3.22v1.79h2.817c-0.136-0.605-0.127-1.258-0.041-2
		h-0.776v-1.79h-3.22v-4.63h-2.13v-3.93h-2.13v-4.73h-2.13v-44.19h2.13v-4.19h2.13v-3.51h2.13v-2.47h2.15v-2.12h2.12v-1.8h5.08
		v-2.13h4v-2.45h6.63v-2.19h9.37v-2.37h30.34v-3.06h11.29v3.19h6.06v-2.38h3.689v-3.53h1.41v-2H136.901z"/>
</g>
<g>
	<polygon points="119.981,121.909 98.801,121.909 98.801,119.759 92.421,119.759 92.421,117.189 90.292,117.189 90.292,115.509 
		88.162,115.509 88.162,113.379 86.011,113.379 86.011,111.249 83.881,111.249 83.881,109.119 81.751,109.119 81.751,106.989 
		77.501,106.989 77.501,100.659 79.501,100.659 79.501,104.989 83.751,104.989 83.751,107.119 85.881,107.119 85.881,109.249 
		88.011,109.249 88.011,111.379 90.162,111.379 90.162,113.509 92.292,113.509 92.292,115.189 94.421,115.189 94.421,117.759 
		100.801,117.759 100.801,119.909 117.981,119.909 117.981,118.109 120.111,118.109 120.111,115.639 125.441,115.639 
		125.441,113.509 130.211,113.509 130.211,109.249 132.461,109.249 132.461,106.689 135.711,106.689 135.711,95.939 137.192,95.939 
		137.192,77.279 138.881,77.279 138.881,73.439 140.881,73.439 140.881,70.869 143.571,70.869 143.571,37.709 141.841,37.709 
		141.841,34.509 139.311,34.509 139.311,32.749 137.192,32.749 137.192,23.969 139.311,23.969 139.311,1.529 141.311,1.529 
		141.311,25.969 139.192,25.969 139.192,30.749 141.311,30.749 141.311,32.509 143.841,32.509 143.841,35.709 145.571,35.709 
		145.571,72.869 142.881,72.869 142.881,75.439 140.881,75.439 140.881,79.279 139.192,79.279 139.192,97.939 137.711,97.939 
		137.711,108.689 134.461,108.689 134.461,111.249 132.211,111.249 132.211,115.509 127.441,115.509 127.441,117.639 
		122.111,117.639 122.111,120.109 119.981,120.109 	"/>
</g>
<g>
	<polygon points="61.753,92.145 59.753,92.145 59.753,85.897 57.836,85.897 57.836,83.53 55.836,83.53 55.836,64.814 64.567,64.814 
		64.567,81.475 62.567,81.475 62.567,66.814 57.836,66.814 57.836,81.53 59.836,81.53 59.836,83.897 61.753,83.897 	"/>
</g>
<g>
	<polygon points="75.711,66.814 63.567,66.814 63.567,64.814 73.711,64.814 73.711,58.07 75.878,58.07 75.878,53.815 77.497,53.815 
		77.497,51.106 81.378,51.106 81.378,48.856 84.461,48.856 84.461,45.299 90.628,45.299 90.628,42.522 96.672,42.522 96.672,41.02 
		115.128,41.02 115.128,38.439 121.628,38.439 121.628,36.022 125.795,36.022 125.795,33.555 132.128,33.555 132.128,36.76 
		134.907,36.76 134.907,39.965 138.112,39.965 138.112,42.075 140.627,42.075 140.627,50.635 144.567,50.635 144.567,52.635 
		138.627,52.635 138.627,44.075 136.112,44.075 136.112,41.965 132.907,41.965 132.907,38.76 130.128,38.76 130.128,35.555 
		127.795,35.555 127.795,38.022 123.628,38.022 123.628,40.439 117.128,40.439 117.128,43.02 98.672,43.02 98.672,44.522 
		92.628,44.522 92.628,47.299 86.461,47.299 86.461,50.856 83.378,50.856 83.378,53.106 79.497,53.106 79.497,55.815 77.878,55.815 
		77.878,60.07 75.711,60.07 	"/>
</g>
<g>
	<polygon points="96.547,73.925 85.628,73.925 85.628,71.815 80.672,71.815 80.672,70.272 77.045,70.272 77.045,67.555 
		74.237,67.555 74.237,65.555 79.045,65.555 79.045,68.272 82.672,68.272 82.672,69.815 87.628,69.815 87.628,71.925 94.547,71.925 
		94.547,69.815 98.802,69.815 98.802,67.665 102.545,67.665 102.545,66.189 107.961,66.189 107.961,64.106 112.671,64.106 
		112.671,62.689 116.461,62.689 116.461,61.295 120.107,61.295 120.107,59.772 123.331,59.772 123.331,58.07 126.517,58.07 
		126.517,55.94 129.045,55.94 129.045,53.815 132.545,53.815 132.545,52.106 136.711,52.106 136.711,50.635 140.313,50.635 
		140.313,52.635 138.711,52.635 138.711,54.106 134.545,54.106 134.545,55.815 131.045,55.815 131.045,57.94 128.517,57.94 
		128.517,60.07 125.331,60.07 125.331,61.772 122.107,61.772 122.107,63.295 118.461,63.295 118.461,64.689 114.671,64.689 
		114.671,66.106 109.961,66.106 109.961,68.189 104.545,68.189 104.545,69.665 100.802,69.665 100.802,71.815 96.547,71.815 	"/>
</g>
<g>
	<polygon points="103.295,97.405 93.492,97.405 93.492,94.2 90.628,94.2 90.628,89.919 88.157,89.919 88.157,84.585 86.007,84.585 
		86.007,82.475 81.747,82.475 81.747,79.979 77.497,79.979 77.497,78.225 73.237,78.225 73.237,75.439 66.378,75.439 66.378,72.189 
		64.128,72.189 64.128,70.189 68.378,70.189 68.378,73.439 75.237,73.439 75.237,76.225 79.497,76.225 79.497,77.979 83.747,77.979 
		83.747,80.475 88.007,80.475 88.007,82.585 90.157,82.585 90.157,87.919 92.628,87.919 92.628,92.2 95.492,92.2 95.492,95.405 
		101.295,95.405 101.295,92.606 105.207,92.606 105.207,90.07 109.878,90.07 109.878,86.845 112.671,86.845 112.671,84.356 
		115.128,84.356 115.128,80.475 117.545,80.475 117.545,74.075 123.628,74.075 123.628,76.772 126.387,76.772 126.387,79.4 
		137.795,79.4 137.795,81.4 124.387,81.4 124.387,78.772 121.628,78.772 121.628,76.075 119.545,76.075 119.545,82.475 
		117.128,82.475 117.128,86.356 114.671,86.356 114.671,88.845 111.878,88.845 111.878,92.07 107.207,92.07 107.207,94.606 
		103.295,94.606 	"/>
</g>
<g>
	<polygon points="128.517,92.07 118.628,92.07 118.628,90.07 126.517,90.07 126.517,80.4 128.517,80.4 	"/>
</g>
<g>
	<polygon points="122.107,106.99 110.899,106.99 110.899,104.99 120.107,104.99 120.107,102.564 128.899,102.564 128.899,104.564 
		122.107,104.564 	"/>
</g>
<g>
	<path fill="#FCD1A6" d="M141.952,229.439v-7.63h-3.37v-3.31h-4.31v-3.82h-5.1v-0.336c-0.399,0.853-1.184,1.505-2.362,1.58
		c-0.204,0.516-0.543,0.968-1.018,1.287c-0.06,0.953-0.549,1.859-1.441,2.381c-0.855,0.501-1.914,0.516-2.787,0.119
		c-0.105,0.319-0.238,0.633-0.45,0.93c-0.699,0.982-1.782,1.577-2.908,1.469c-0.015,0.105-0.025,0.207-0.04,0.314
		c-0.1,0.723-0.781,1.443-1.378,1.793c-0.265,0.156-0.555,0.254-0.852,0.32c-0.207,0.459-0.537,0.888-1.023,1.242
		c-0.845,0.617-1.81,1.342-2.842,1.615c-0.268,0.071-0.401,0.09-0.471,0.091c0.032,0.044,0.015,0.173-0.268,0.513
		c-0.519,0.626-1.385,0.881-2.164,1.105c0.251,1.466-0.494,3.184-2.098,3.604c-0.217,0.057-0.439,0.097-0.662,0.133
		c-0.184,0.936-0.151,2.053-0.305,2.834c-0.219,1.117-1.154,1.81-1.615,2.779c-0.263,0.554-0.62,0.927-1.019,1.176h1.391v3.171h8.22
		v2.55h22.88v-5.721h8.52v-10.189H141.952z"/>
</g>
<g>
	<polygon points="92.062,234.878 86.582,234.878 86.582,231.689 82.131,231.689 82.131,229.718 77.021,229.718 77.021,227.189 
		73.162,227.189 73.162,224.069 66.812,224.069 66.812,220.789 61.122,220.789 61.122,222.689 50.912,222.689 50.912,227.189 
		43.751,227.189 43.751,218.229 41.221,218.229 41.221,208 39.211,208 39.211,198.439 36.841,198.439 36.841,193.958 
		33.562,193.958 33.562,190.089 30.971,190.089 30.971,174.769 27.792,174.769 27.792,124.789 30.711,124.789 30.711,120.519 
		32.792,120.519 32.792,117.149 36.111,117.149 36.111,114.269 38.131,114.269 38.131,111.109 41.221,111.109 41.221,108.179 
		43.461,108.179 43.461,103.779 45.961,103.779 45.961,101.779 48.292,101.779 48.292,98.859 51.461,98.809 51.461,96.669 
		54.001,96.669 54.001,94.089 56.571,94.089 56.571,92.559 58.571,92.559 58.571,96.089 56.001,96.089 56.001,98.669 53.461,98.669 
		53.461,100.859 50.292,100.859 50.292,103.779 47.961,103.779 47.961,105.779 45.461,105.779 45.461,110.179 43.221,110.179 
		43.221,113.109 40.131,113.109 40.131,116.269 38.111,116.269 38.111,119.149 34.792,119.149 34.792,122.519 32.711,122.519 
		32.711,126.789 29.792,126.789 29.792,172.769 32.971,172.769 32.971,188.089 35.542,188.089 35.562,189.089 35.562,191.958 
		38.841,191.958 38.841,196.439 41.211,196.439 41.211,206 43.221,206 43.221,216.229 45.751,216.229 45.751,225.189 
		48.912,225.189 48.912,220.689 59.122,220.689 59.122,218.789 68.812,218.789 68.812,222.069 75.162,222.069 75.162,225.189 
		79.021,225.189 79.021,227.718 84.131,227.718 84.131,229.689 88.582,229.689 88.582,232.878 92.062,232.878 	"/>
</g>
<path d="M256.891,144.079v2.459h-6.81v2.551h-4.271v2.56h-6.819v3.04h-5.11v2.88h-6.38v2.37h-6.41v2.5h-5.11v2.01h-5.979v2.54h-5.1
	v2.08h-5.521v2.39l-5.11,0.021v1.91h-4.729v1.94h-5.54v2.549h-6.37v2.561h-4.72v2.55h-5.11v2.55h-3.82v3.57h-5.149v11.33h-2.55v3.01
	h-4.68V206h-8.471v2.58h-7.311v1.779h-7.649v5.32h5.1v3.82h4.31v3.31h3.37v7.63h2.529v8.189h-8.52v5.721h-20.88v-2.55h-8.22v-3.171
	h-6.4v-3.219h-5.11v-2.531h-3.29v3.19h-5.1v1.92h-5.11v2.521h-3.84v5.84h3.84v2.56h5.11v2.58h5.88v2.55h4.33v2.03h5.11v3.08h2.58
	v2.56h5.11v2.551h2.58v2.55h5.1v2.58h3.31v2.55h4.88v2.56h5.37v2.551h4.35v2.56h5.78v2.55h5v1.91h3.271v3.23h7.109v-1.29h3.851
	v-1.29h7.699v-2.561h5.11v-2.55h7.2v-3.3h6.86v-3.101h6.369v-2.529h5.11v-2.58h7.271v-3.84h5.52v-2.551h6.4v-3.819h4.699v-2.58
	h6.811v-2.53h6.39v-3.87h5.11v-2.56h5.979v-2.55h6.4v-3.171h5.53v-3.219h6.39v-2.531h4.69v-2.58h4.649v-88.219H256.891z
	 M155.711,218.789v33.25h-1.99v33.261h-3.109v-3.23h-3.271v-1.91h-5v-2.55h-5.78v-2.56h-4.35v-2.551h-5.37v-2.56h-4.88v-2.55h-3.31
	v-2.58h-5.1v-2.55h-2.58v-2.551h-5.11v-2.56h-2.58v-3.08h-5.11v-2.03h-4.33v-2.55h-5.88v-2.58h-5.11v-2.56h-3.84v-1.84h3.84v-2.521
	h5.11v-1.92h5.1v-0.659h4.4v3.219h6.4v3.171h8.22v2.55h24.88v-5.721h8.52v-12.189h-2.529v-7.63h-3.37v-3.31h-4.31v-3.82h-5.1v-1.32
	h7.649v-1.779h7.311V208h8.471v-2.551h4.68v-3.01h0.55v16.35H155.711z M271.761,230.298h-4.649v2.58h-4.69v2.531h-6.39v3.219h-5.53
	v3.171h-6.4v2.55h-5.979v2.56h-5.11v3.87h-6.39v2.53h-6.811v2.58h-4.699v3.819h-6.4v2.551h-5.52v3.84h-7.271v2.58h-5.11v2.529
	h-6.369v3.101h-6.86v3.3h-7.2v2.55h-5.11v2.561h-7.699v1.29h-1.851v-29.971h1.99v-33.25h3.12v-29.68h5.149v-3.57h3.82v-2.55h5.11
	v-2.55h4.72v-2.561h6.37v-2.549h5.54v-1.94h4.729v-1.91h5.11v-2.41h5.521v-2.08h5.1v-2.54h5.979v-2.01h5.11v-2.5h6.41v-2.37h6.38
	v-2.88h5.11v-3.04h6.819v-2.56h4.271v-2.551h6.81v-2.459h12.87V230.298z"/>
<g>
	<polygon points="128.711,215.677 124.711,215.677 124.711,213.128 120.128,213.128 120.128,210.189 116.045,210.189 
		116.045,201.439 127.711,201.439 127.711,198.335 138.37,198.335 138.37,195.78 144.819,195.78 144.819,193.224 151.183,193.224 
		151.183,189.38 159.458,189.38 159.458,191.38 153.183,191.38 153.183,195.224 146.819,195.224 146.819,197.78 140.37,197.78 
		140.37,200.335 129.711,200.335 129.711,203.439 118.045,203.439 118.045,208.189 122.128,208.189 122.128,211.128 
		126.711,211.128 126.711,213.677 128.711,213.677 	"/>
</g>
<g>
	<polygon points="117.045,203.439 111.541,203.439 111.541,200.335 107.708,200.335 107.708,197.78 103.899,197.78 103.899,195.224 
		98.752,195.224 98.752,192.064 96.173,192.064 96.173,187.541 91.111,187.541 91.111,183.703 88.531,183.703 88.531,178.591 
		85.336,178.591 85.336,174.771 83.373,174.771 83.373,171.544 80.842,171.544 80.842,166.446 78.274,166.446 78.274,160.744 
		76.373,158.841 76.373,155.615 74.769,154.01 74.769,148.541 71.211,148.541 71.211,144.702 66.086,144.702 66.086,142.814 
		62.943,142.814 62.943,138.29 60.412,138.29 60.412,135.741 57.833,135.741 57.833,133.192 56.555,133.192 56.555,130.637 
		53.586,130.637 53.586,128.082 50.711,128.082 50.711,122.971 48.624,122.971 48.624,120.971 52.711,120.971 52.711,126.082 
		55.586,126.082 55.586,128.637 58.555,128.637 58.555,131.192 59.833,131.192 59.833,133.741 62.412,133.741 62.412,136.29 
		64.943,136.29 64.943,140.814 68.086,140.814 68.086,142.702 73.211,142.702 73.211,146.541 76.769,146.541 76.769,153.182 
		78.373,154.787 78.373,158.013 80.274,159.916 80.274,164.446 82.842,164.446 82.842,169.544 85.373,169.544 85.373,172.771 
		87.336,172.771 87.336,176.591 90.531,176.591 90.531,181.703 93.111,181.703 93.111,185.541 98.173,185.541 98.173,190.064 
		100.752,190.064 100.752,193.224 105.899,193.224 105.899,195.78 109.708,195.78 109.708,198.335 113.541,198.335 113.541,201.439 
		117.045,201.439 	"/>
</g>
<g>
	<polygon points="105.861,239.939 103.861,239.939 103.861,236.269 105.542,236.269 105.542,231.589 108.042,231.589 
		108.042,228.269 110.961,228.269 110.961,225.939 114.071,225.939 114.071,223.189 117.042,223.189 117.042,220.609 
		120.792,220.609 120.792,218.269 125.042,218.269 125.042,214.968 133.711,214.968 133.711,216.968 127.042,216.968 
		127.042,220.269 122.792,220.269 122.792,222.609 119.042,222.609 119.042,225.189 116.071,225.189 116.071,227.939 
		112.961,227.989 112.961,230.269 110.042,230.269 110.042,233.589 107.542,233.589 107.542,238.269 105.861,238.269 	"/>
</g>
<g>
	<polygon points="63.678,219.788 61.678,219.788 61.678,217.564 58.586,217.564 58.586,215.064 56.555,215.064 56.555,213.128 
		52.735,213.128 52.735,210.58 51.463,210.58 51.463,208 48.866,208 48.866,205.446 45.836,205.446 45.836,202.314 43.755,202.314 
		43.755,200.335 41.224,200.335 41.224,197.78 38.403,197.78 38.403,195.78 43.224,195.78 43.224,198.335 45.755,198.335 
		45.755,200.314 47.836,200.314 47.836,203.446 50.866,203.446 50.866,206 53.463,206 53.463,208.58 54.735,208.58 54.735,211.128 
		58.555,211.128 58.555,213.064 60.586,213.064 60.586,215.564 63.678,215.564 	"/>
</g>
<g>
	<path d="M183.961,153.645c-0.013-0.617-0.016-1.234-0.014-1.856c0-0.051,0.012-0.095,0.015-0.144h-0.077v-2.556h-4.258v-3.809
		h-3.84v-2.938h-2.576v-3.473h-2.12v-3.857h-2.556v-4.49h-2.969v-5.73h-3.844v-3.821h-3.43v-2.555h-1.266v-3.844h-2.567v-3.839
		h-2.682v-2.549h-4.96v-2.556h-2.579v-3.845h-7.4v2h5.4v3.845h2.579v2.556h4.96v2.549h2.681v3.839h2.568v3.844h1.266v2.555h3.43
		v3.821h3.844v5.73h2.969v4.49h2.556v3.857h2.12v3.473h2.576v2.938h3.84v3.809h4.258v2.556H183.961z"/>
</g>
<g>
	<polygon fill="#25493D" points="93.063,233.064 91.063,233.064 91.063,223.314 93.642,223.314 93.642,218.788 95.586,218.788 
		95.586,216.232 97.462,216.232 97.462,213.939 99.462,213.939 99.462,218.232 97.586,218.232 97.586,220.788 95.642,220.788 
		95.642,225.314 93.063,225.314 	"/>
</g>
<g>
	<path fill="#25493D" d="M78.021,113.992v-2h-5.388v-0.515c-0.444-0.133-0.885-0.299-1.325-0.542
		c-0.613-0.338-1.206-1.057-1.511-1.68c-0.147-0.301-0.163-0.428-0.152-0.481c-0.039,0.029-0.145,0.057-0.434-0.001
		c-1.224-0.246-2.238-0.87-2.455-2.19c-0.206-1.249,0.076-0.489-0.702-0.221h0.158v2.994h2.333v2.117h2.088v2.519H78.021z"/>
	<path fill="#25493D" d="M92.352,218.788v1.901h-3.821v3.211h-2.444v-3.822h-3.232v-1.764h-3.845v-2.75h-6.922v-1.887h-2.032v-1.808
		h2.579v-3.056h4.703v-2.75h2.938v-3.174h2.568v-3.076h0.994v-2h-5v2.688h-2.5v2.438h-5.125v2.625h-3.157v2.25h-1.03v-4.285h2.313
		v-4.459h3v-5.11h2.5v-3.146h3.938v-2h-9.75v3.146H55.399v-2.833h-1.688v-4.125h-2.171v-4.875h-3.704v-2.813h-3.322v-14.146h-2.115
		v-36.375h3.381v-2.532h4.182v-4.579h-4.206v-0.531h3.373v-3.869h3.027v-3.809h2.567v-5.111H62.2c-0.991-0.218-1.475-1.114-1.454-2
		h-8.023v5.111h-2.567v3.809h-3.027v3.869h-3.373v4.531h4.206v0.579H43.78v2.532h-3.381v40.375h2.115v14.146h3.322v2.813h3.704
		v4.875h2.171v4.125h1.688v2.833h16.938v3.11h-3v4.459h-2.313v8.285h5.03v-2.25h0.579v2.306h-2.579v5.808h2.032v1.887h6.922v2.75
		h3.845v1.764h3.232v3.822h6.444v-3.211h3.821v-1.901h0.29v-2H92.352z M73.211,204.939h2.125v1.875h-2.125V204.939z M71.024,190.814
		h1.813v1.146h-1.813V190.814z"/>
	<polygon fill="#25493D" points="80.836,200.89 80.842,200.89 80.836,199.814 	"/>
</g>
<g>
	<polygon points="125.461,245.353 123.461,245.353 123.461,242.001 117.045,242.001 117.045,240.001 125.461,240.001 	"/>
</g>
<g>
	<polygon points="135.961,240.634 131.711,240.634 131.711,237.001 126.336,237.001 126.336,235.001 133.711,235.001 
		133.711,238.634 135.961,238.634 	"/>
</g>
<g>
	<path fill="none" stroke="#000000" stroke-width="2" stroke-miterlimit="10" d="M144.48,232.126"/>
</g>
<g>
	<polygon points="142.586,239.376 140.586,239.376 140.586,233.501 135.836,233.501 135.836,229.689 131.149,229.689 
		131.149,227.689 137.836,227.689 137.836,231.501 142.586,231.501 	"/>
</g>
<g>
	<polygon points="53.711,78.439 53.711,56.689 61.545,56.689 61.545,53.772 66.211,53.772 66.211,46.939 69.211,46.939 
		69.211,42.522 72.545,42.522 72.545,39.439 69.102,39.439 69.102,36.287 62.678,36.287 62.678,32.189 58.833,32.189 58.833,28.646 
		55.628,28.646 52.912,28.646 52.912,32.669 50.781,32.669 50.781,78.859 	"/>
</g>
<g>
	<polygon points="69.102,31.177 69.102,29.272 66.522,29.272 66.522,26.605 70.368,26.605 70.368,23.772 72.545,23.772 
		74.17,22.147 75.795,22.147 77.243,20.7 79.628,20.7 79.628,17.939 81.295,17.939 81.295,22.222 78.501,22.222 78.501,24.558 
		75.472,24.558 75.472,26.855 72.045,26.855 72.045,31.177 	"/>
</g>
<g>
	<polygon points="123.749,15.939 115.119,15.939 115.119,13.939 121.749,13.939 121.749,11.007 126.378,11.007 126.378,9.189 
		131.128,9.189 131.128,11.189 128.378,11.189 128.378,13.007 123.749,13.007 	"/>
</g>
<g>
	<polygon points="130.173,14.939 123.124,14.939 123.124,12.939 128.173,12.939 128.173,10.606 130.728,10.606 130.728,9.189 
		134.628,9.189 134.628,11.189 132.728,11.189 132.728,12.606 130.173,12.606 	"/>
</g>
<g>
	<polygon points="131.728,34.105 135.55,34.105 135.55,37.022 138.545,37.022 138.545,39.439 144.53,39.439 144.571,52.189 
		141.95,51.635 139.627,51.635 139.961,44.605 138.628,43.147 137.112,43.075 136.839,41.386 133.907,40.965 134.045,38.605 
		131.128,37.76 	"/>
</g>
<g>
	<polygon fill="#575756" points="109.899,70.189 109.899,71.925 105.795,71.925 105.795,73.439 100.795,73.439 100.795,76.605 
		97.211,76.605 97.211,78.605 102.795,78.605 102.795,77.397 108.378,77.397 108.378,79.272 110.537,79.272 110.537,82.605 
		114.711,82.605 114.711,70.189 	"/>
</g>
<g>
	<polygon fill="#575756" points="133.461,57.689 133.461,60.219 130.128,60.219 130.128,63.022 125.329,63.022 125.329,65.022 
		131.628,65.022 131.628,65.214 134.211,65.214 134.211,67.189 135.839,67.189 135.839,70.739 139.877,70.739 139.877,57.689 	"/>
</g>
<g>
	<polygon fill="#878787" points="113.211,78.859 111.211,78.859 111.211,74.689 110.461,74.689 110.461,76.126 105.461,76.126 
		105.461,74.126 108.461,74.126 108.461,72.689 113.211,72.689 	"/>
</g>
<g>
	<polygon fill="#878787" points="138.399,65.814 136.399,65.814 136.399,61.314 136.211,61.314 136.211,63.28 131.649,63.28 
		131.649,61.28 134.211,61.28 134.211,59.314 138.399,59.314 	"/>
</g>
<polyline fill="none" stroke="#000000" stroke-width="2" stroke-miterlimit="10" points="98.457,239.634 93.211,239.634 
	93.211,242.677 95.834,242.677 95.834,245.349 98.457,245.349 98.457,248.564 101.586,248.564 101.586,249.939 104.961,249.939 
	104.961,251.814 109.211,251.814 109.211,253.814 112.711,253.814 112.711,256.314 117.045,256.314 117.045,259.189 
	122.461,259.189 122.461,261.814 126.336,261.814 126.336,264.939 130.211,264.939 130.211,266.439 135.211,266.439 
	135.211,268.814 138.836,268.814 138.836,271.564 145.336,271.564 145.336,269.189 148.336,269.189 148.336,267.814 
	151.461,267.814 151.461,265.939 153.961,265.939 "/>
<polyline fill="none" stroke="#000000" stroke-width="2" stroke-miterlimit="10" points="135.211,266.439 141.461,266.439 
	141.461,262.356 145.448,262.356 145.448,259.106 148.295,259.106 148.295,256.106 151.461,256.106 151.461,253.689 
	154.794,253.689 "/>
<polyline fill="none" stroke="#000000" stroke-width="2" stroke-miterlimit="10" points="125.961,261.814 131.149,261.814 
	131.149,258.106 134.545,258.106 134.545,255.599 139.128,255.599 139.128,251.939 143.795,251.939 143.795,248.523 
	148.628,248.523 148.628,244.856 153.545,244.856 153.545,242.677 156.045,242.677 "/>
<polyline fill="none" stroke="#000000" stroke-width="2" stroke-miterlimit="10" points="116.045,256.314 120.628,256.314 
	120.628,252.246 125.461,252.246 125.461,249.856 131.149,249.856 131.149,246.606 135.961,246.606 135.961,244.939 "/>
<polyline fill="none" stroke="#000000" stroke-width="2" stroke-miterlimit="10" points="106.045,250.626 111.545,250.626 
	111.545,248.689 116.378,248.689 116.378,244.939 "/>
<polyline fill="none" stroke="#000000" stroke-width="2" stroke-miterlimit="10" points="136.461,244.939 141.711,244.939 
	141.711,241.189 145.002,241.189 145.002,237.439 150.711,237.439 150.711,233.064 154.794,233.064 154.794,229.273 
	156.045,229.273 "/>
<polyline fill="none" stroke="#000000" stroke-width="2" stroke-miterlimit="10" points="141.952,227.454 146.877,227.454 
	146.877,222.939 150.045,222.939 150.045,219.355 156.711,219.355 156.711,216.439 159.458,216.439 "/>
<polyline fill="none" stroke="#000000" stroke-width="2" stroke-miterlimit="10" points="139.045,220.355 143.127,220.355 
	143.127,216.773 149.377,216.773 149.377,212.773 155.623,212.773 155.623,209.855 159.711,209.855 "/>
<polyline fill="none" stroke="#9D9D9C" stroke-width="2" stroke-miterlimit="10" points="217.461,216.596 211.211,216.596 
	211.211,211.596 206.461,211.596 206.461,207.096 210.211,207.096 210.211,202.846 213.711,202.846 213.711,198.971 
	220.211,198.971 220.211,201.186 225.086,201.186 225.086,204.596 228.211,204.596 228.211,209.346 224.961,209.346 
	224.961,213.001 220.836,213.001 214.961,213.001 214.961,206.596 217.336,206.596 217.336,203.846 221.211,203.846 
	221.211,209.596 "/>
<polyline fill="none" stroke="#000000" stroke-width="2" stroke-miterlimit="10" points="61.051,90.247 61.051,99.122 
	61.051,103.748 61.051,106.362 67.367,106.362 67.367,108.684 70.926,108.684 70.926,111.434 79.426,111.434 "/>
<polyline fill="none" stroke="#000000" stroke-width="2" stroke-miterlimit="10" points="139.045,160.33 139.045,180.059 
	141.045,180.059 141.045,187.309 142.795,187.309 142.795,197.309 "/>
<polyline fill="none" stroke="#000000" stroke-width="2" stroke-miterlimit="10" points="182.801,152.247 182.801,157.497 
	185.7,157.497 185.7,163.622 187.801,163.622 187.801,168.684 190.551,168.684 190.551,174.372 "/>
</svg>
