<?xml version="1.0" standalone="no"?>
<!DOCTYPE svg PUBLIC "-//W3C//DTD SVG 20010904//EN"
 "http://www.w3.org/TR/2001/REC-SVG-20010904/DTD/svg10.dtd">
<svg version="1.0" xmlns="http://www.w3.org/2000/svg"
 width="1102.000000pt" height="1102.000000pt" viewBox="0 0 1102.000000 1102.000000"
 preserveAspectRatio="xMidYMid meet">
<metadata>
Created by potrace 1.14, written by Peter Selinger 2001-2017
</metadata>
<g transform="translate(0.000000,1102.000000) scale(0.100000,-0.100000)"
fill="#000000" stroke="none">
<path d="M5225 10933 c0 -97 7 -88 -70 -92 -17 -1 -20 -7 -18 -44 l2 -44 -45
2 -44 3 0 -47 0 -46 -40 -1 c-47 -1 -50 5 -47 109 2 65 1 67 -23 68 -162 3
-319 1 -327 -4 -6 -4 -10 -27 -8 -52 1 -30 -2 -42 -9 -37 -6 4 -45 7 -86 7
l-75 1 -5 -45 c-5 -45 -6 -45 -42 -46 -45 0 -52 -6 -50 -50 1 -30 -2 -35 -21
-36 -34 -1 -210 -1 -228 0 -11 1 -15 10 -14 34 1 17 0 37 -2 42 -4 12 -951 14
-969 3 -6 -4 -10 -21 -9 -38 1 -17 -2 -33 -8 -37 -6 -3 -105 -7 -221 -7 l-211
-1 -1 -38 c-1 -20 -3 -40 -6 -42 -3 -3 -63 -6 -134 -8 l-129 -2 0 -40 0 -40
-87 -3 -88 -3 0 -44 0 -45 -90 0 -90 0 0 -45 0 -44 -42 2 -43 2 -3 -47 -3 -48
-45 0 -44 0 0 -43 0 -44 -42 1 -43 1 0 -80 c0 -44 -4 -85 -7 -91 -4 -6 -22
-10 -40 -9 -39 2 -48 -8 -48 -55 0 -35 -1 -35 -43 -35 l-42 0 1 -42 1 -43 -43
0 c-24 0 -45 -3 -45 -7 -1 -5 -2 -364 -3 -800 l-1 -792 45 -3 45 -3 0 -175 0
-175 43 0 42 0 0 -86 c0 -93 5 -102 54 -93 34 6 39 -7 40 -100 l1 -80 42 1 43
1 0 -91 0 -92 90 1 90 1 0 -43 0 -44 45 0 c44 0 45 -1 43 -32 -1 -57 0 -58 46
-58 l44 0 -1 -87 -2 -88 -43 2 c-45 2 -47 -2 -42 -64 1 -21 -3 -23 -44 -23
l-46 0 0 -45 0 -45 -45 0 -45 0 0 -45 0 -45 -45 0 -45 0 0 -45 0 -45 -44 0
-44 0 0 -67 c0 -117 3 -109 -44 -109 -41 1 -43 -1 -45 -29 0 -16 -2 -37 -2
-46 -1 -11 -12 -15 -43 -15 l-43 1 1 -45 1 -45 -46 0 -46 0 1 -42 c2 -46 0
-47 -59 -43 -22 1 -27 -3 -28 -22 0 -13 -1 -52 -2 -88 l-2 -65 -42 -3 c-24 -2
-43 -6 -44 -10 0 -4 -1 -43 -2 -87 l-2 -80 -30 -2 c-16 0 -36 -2 -42 -2 -10
-1 -13 -179 -13 -856 0 -677 3 -855 13 -856 6 -1 26 -2 42 -3 l30 -1 1 -258
c1 -142 5 -261 8 -265 4 -4 21 -8 37 -8 16 -1 33 -2 39 -3 5 0 9 -17 8 -36 -2
-44 3 -48 49 -49 l38 -1 0 -85 0 -85 45 -5 45 -5 0 -172 c0 -188 -5 -175 58
-176 31 0 28 18 28 -214 l0 -142 46 -3 46 -3 0 -132 1 -131 133 0 133 1 0 43
c0 24 3 44 8 45 4 0 83 1 177 2 l170 2 0 43 0 42 132 0 133 0 0 -45 0 -45 90
0 90 0 0 -46 0 -46 43 3 c40 3 42 2 44 -26 0 -17 2 -37 2 -45 1 -13 16 -16 86
-15 47 1 85 -1 86 -4 1 -3 2 -22 2 -41 1 -19 5 -37 9 -40 4 -3 44 -6 88 -5
l80 1 1 -33 c0 -18 1 -49 1 -68 0 -78 2 -75 -46 -75 -41 0 -43 -2 -44 -27 0
-67 6 -63 -90 -63 l-89 0 2 -45 2 -45 -46 0 -46 0 2 -77 c1 -43 2 -84 2 -91 1
-9 23 -12 89 -10 l88 3 -1 -45 0 -45 88 0 c86 0 87 0 88 -25 3 -70 -4 -65 92
-65 l87 1 0 -46 0 -45 88 0 87 0 1 -39 c0 -48 8 -51 107 -50 l73 2 -1 -44 -2
-44 44 0 43 0 0 -45 c0 -51 -7 -48 118 -47 l62 1 0 -45 0 -44 45 0 45 0 0 -44
0 -45 78 1 c42 0 83 -1 89 -1 7 -1 12 -14 11 -33 -1 -57 0 -58 47 -58 43 0 45
-1 41 -24 -10 -56 -2 -62 90 -61 50 0 84 -4 85 -10 1 -5 2 -26 3 -45 l1 -35
82 0 c45 0 85 -4 89 -8 5 -4 7 -24 5 -43 -2 -33 -2 -34 36 -35 21 -1 62 -1 91
0 l52 2 0 -45 c0 -30 4 -46 13 -47 6 0 47 -1 90 -2 77 -1 78 -1 77 -26 -4 -63
-7 -61 89 -61 l88 0 -2 -45 -2 -45 47 0 46 0 -1 -45 -2 -45 134 0 133 0 0 -36
c0 -29 3 -34 18 -30 16 5 70 17 135 31 15 3 27 12 27 20 0 11 12 15 45 15 l45
0 0 45 0 45 91 0 91 0 -2 27 c-5 67 -13 63 133 63 l134 0 -1 43 -1 42 123 2
c67 1 127 2 132 2 6 1 10 21 10 45 l0 44 63 1 c130 0 119 -4 114 41 -3 25 0
40 7 41 6 1 27 2 46 3 35 1 35 1 35 47 l0 46 45 -1 45 -1 -1 43 c0 47 -7 45
104 43 78 -2 77 -3 72 62 -1 16 4 27 12 28 7 0 48 1 91 1 l77 0 0 44 0 44 44
0 45 0 3 42 3 43 110 2 c61 1 119 2 131 2 18 1 21 7 20 43 l-1 43 84 3 c47 1
86 4 88 6 3 2 5 22 6 44 l1 39 88 -1 87 -1 3 45 3 45 40 0 40 0 5 45 5 45 130
0 130 0 3 45 3 45 67 -2 c102 -4 109 -1 107 47 -2 45 -8 43 103 41 78 -2 77
-3 72 62 l-2 27 91 0 91 0 0 45 0 45 91 0 91 0 -2 33 c-3 58 -6 56 88 55 l87
-2 0 45 0 44 83 2 c46 1 86 4 89 7 3 3 5 22 5 43 l-1 38 42 0 42 0 5 45 5 45
75 0 c41 -1 80 1 86 3 8 2 11 278 12 960 1 1135 -2 1012 18 1012 14 0 15 30
11 297 -2 164 -7 309 -10 322 -10 39 -21 216 -21 337 l0 112 -46 6 c-25 3 -63
4 -85 1 -80 -9 -142 -15 -250 -21 -60 -4 -112 -8 -115 -11 -2 -2 -4 -16 -5
-31 l0 -27 -132 -3 -133 -3 -1 -37 c-1 -20 -1 -41 0 -45 1 -4 -20 -7 -46 -6
-27 1 -67 1 -90 0 l-43 -1 0 -44 0 -44 -70 2 c-97 2 -110 -4 -110 -52 l0 -38
-77 1 c-43 1 -83 0 -90 -3 -7 -2 -10 -18 -8 -42 2 -24 0 -40 -8 -42 -7 -3 -67
-4 -134 -3 l-123 1 -1 -26 c-3 -71 9 -65 -134 -65 l-130 0 -5 -44 -5 -44 -87
1 -88 1 3 -40 c2 -22 -1 -43 -6 -46 -5 -3 -86 -6 -178 -6 l-169 0 0 -44 0 -43
-90 0 -90 0 0 46 c0 43 -1 45 -27 44 -57 -4 -59 -2 -58 42 0 27 -5 43 -12 44
-7 1 -28 2 -47 3 -32 1 -34 3 -32 34 4 48 -1 54 -44 52 -39 -2 -40 -1 -41 32
-1 18 -2 39 -3 46 -1 7 -16 12 -44 11 -31 0 -42 4 -43 15 0 9 -2 30 -2 46 l-2
30 -85 0 -85 0 -5 89 -5 89 -86 0 -86 -1 -1 31 c0 18 0 38 -1 45 -1 7 -17 12
-44 12 l-43 0 1 43 1 42 -45 5 -46 5 0 40 0 40 -52 0 c-32 0 -49 4 -44 10 4 6
7 26 7 45 -1 34 -2 35 -43 38 l-43 3 0 84 c0 90 -1 92 -60 90 l-35 -1 2 46 3
47 -45 -2 -45 -3 0 89 0 89 -45 0 -45 0 0 90 0 90 -59 0 -60 0 1 73 c1 114 4
107 -48 107 -37 0 -45 3 -43 18 1 9 1 29 0 44 -1 25 -4 27 -43 25 l-43 -2 0
45 0 45 -43 -1 c-23 0 -43 5 -43 10 -3 22 -6 51 -7 67 -2 13 -11 16 -41 14
l-40 -3 -3 47 -3 46 -42 -2 -43 -2 0 44 0 45 -45 0 -45 0 0 220 c0 169 3 220
13 221 6 1 27 0 44 -1 l33 -2 2 404 3 403 41 -3 42 -3 0 58 c1 135 -3 123 46
123 l43 0 -1 43 -2 42 46 5 c42 5 45 7 46 35 2 53 3 54 39 53 19 -1 38 1 41 5
5 4 7 196 5 329 -1 26 -3 27 -43 23 l-43 -5 0 580 0 580 -45 0 c-45 0 -46 0
-45 33 2 50 -4 57 -46 57 l-39 0 0 44 c0 43 -1 44 -32 44 -62 -1 -59 -5 -56
89 l3 88 41 -3 42 -3 0 535 0 536 -91 0 -92 0 0 -87z m535 -7709 l0 -131 -45
2 -45 3 0 -47 0 -47 -87 1 -88 0 -3 -46 -3 -45 -129 1 c-141 1 -145 -1 -134
-61 5 -27 18 -25 -151 -27 l-110 -2 -5 -45 -5 -45 -85 0 -85 0 -1 -40 0 -40
-91 -3 -91 -3 3 41 c3 35 0 41 -20 46 -12 3 -33 4 -46 2 -20 -3 -22 1 -22 44
l1 47 -77 0 c-42 0 -82 0 -89 0 -10 1 -12 22 -10 87 l3 87 220 1 220 1 -1 43
c-1 39 1 42 25 43 14 0 95 0 179 0 l152 0 0 45 0 44 90 0 90 0 -1 28 c-4 66
-12 62 134 62 l134 0 -2 38 c-1 20 0 40 1 44 2 3 42 6 89 5 l85 -1 0 -132z"/>
</g>
</svg>
